<?xml version="1.0" encoding="UTF-8" standalone="no"?>
<svg
   xmlns:dc="http://purl.org/dc/elements/1.1/"
   xmlns:cc="http://creativecommons.org/ns#"
   xmlns:rdf="http://www.w3.org/1999/02/22-rdf-syntax-ns#"
   xmlns:svg="http://www.w3.org/2000/svg"
   xmlns="http://www.w3.org/2000/svg"
   xmlns:sodipodi="http://sodipodi.sourceforge.net/DTD/sodipodi-0.dtd"
   xmlns:inkscape="http://www.inkscape.org/namespaces/inkscape"
   version="1.1"
   x="0px"
   y="0px"
   viewBox="0 0 90 112.5"
   enable-background="new 0 0 90 90"
   xml:space="preserve"
   id="svg14"
   sodipodi:docname="noun_Water Temperature_91225.svg"
   inkscape:version="0.92.5 (2060ec1f9f, 2020-04-08)"><metadata
     id="metadata20"><rdf:RDF><cc:Work
         rdf:about=""><dc:format>image/svg+xml</dc:format><dc:type
           rdf:resource="http://purl.org/dc/dcmitype/StillImage" /></cc:Work></rdf:RDF></metadata><defs
     id="defs18" /><sodipodi:namedview
     pagecolor="#ffffff"
     bordercolor="#666666"
     borderopacity="1"
     objecttolerance="10"
     gridtolerance="10"
     guidetolerance="10"
     inkscape:pageopacity="0"
     inkscape:pageshadow="2"
     inkscape:window-width="1366"
     inkscape:window-height="658"
     id="namedview16"
     showgrid="false"
     inkscape:zoom="2.0977778"
     inkscape:cx="45"
     inkscape:cy="56.25"
     inkscape:window-x="0"
     inkscape:window-y="27"
     inkscape:window-maximized="1"
     inkscape:current-layer="svg14" /><g
     id="g8"
     style="fill:#ffffff"><path
       d="M69.797,61.184V26.338c0-4.022-3.272-7.294-7.295-7.294s-7.295,3.272-7.295,7.294v2.624   c-5.849-8.956-12.258-16.717-12.333-16.807c-0.285-0.344-0.708-0.543-1.155-0.543c-0.446,0-0.87,0.199-1.155,0.542   c-0.903,1.09-22.128,26.837-22.128,39.262c0,12.84,10.445,23.285,23.283,23.285c2.99,0,5.966-0.594,8.73-1.712   c0.959,5.795,5.99,10.233,12.052,10.233c6.744,0,12.231-5.487,12.231-12.232C74.733,67.094,72.903,63.486,69.797,61.184z    M52.482,64.004c-0.181,0.258-0.346,0.523-0.505,0.794c-0.057,0.096-0.113,0.19-0.167,0.288c-0.162,0.293-0.311,0.592-0.448,0.897   c-0.036,0.079-0.069,0.159-0.104,0.239c-0.139,0.325-0.264,0.654-0.373,0.992c-0.02,0.061-0.036,0.122-0.056,0.183   c-0.11,0.359-0.208,0.722-0.285,1.091c-0.006,0.027-0.009,0.055-0.015,0.081c-0.08,0.397-0.146,0.799-0.187,1.206   c-2.706,1.278-5.604,1.926-8.624,1.926c-11.184,0-20.283-9.1-20.283-20.285c0-9.8,15.826-30.331,20.283-35.918   c2.511,3.147,8.631,11.038,13.487,19.097v26.59c-0.36,0.269-0.702,0.557-1.027,0.859c-0.173,0.16-0.329,0.335-0.492,0.504   c-0.139,0.146-0.283,0.287-0.415,0.438c-0.188,0.217-0.36,0.444-0.533,0.673C52.653,63.774,52.564,63.886,52.482,64.004z    M62.502,80.223c-5.089,0-9.229-4.142-9.229-9.232c0-0.066,0.011-0.13,0.013-0.196c0-0.009,0.004-0.018,0.004-0.026   c0.055-2.297,0.958-4.456,2.492-6.091c0.007-0.007,0.016-0.014,0.022-0.021c0.248-0.262,0.511-0.511,0.79-0.744   c0.292-0.243,0.6-0.471,0.925-0.68c0.429-0.276,0.688-0.751,0.688-1.262V34.179v-7.841c0-2.368,1.927-4.294,4.295-4.294   s4.295,1.926,4.295,4.294V61.97c0,0.511,0.26,0.986,0.689,1.263c2.659,1.707,4.247,4.607,4.247,7.758   C71.733,76.081,67.592,80.223,62.502,80.223z"
       id="path2"
       style="fill:#ffffff" /><path
       d="M64.569,64.853V37.558c0-1.142-0.926-2.067-2.067-2.067s-2.067,0.925-2.067,2.067v27.295   c-2.493,0.857-4.284,3.217-4.284,6.004c0,3.507,2.84,6.352,6.352,6.352c3.509,0,6.354-2.845,6.354-6.352   C68.855,68.069,67.063,65.711,64.569,64.853z"
       id="path4"
       style="fill:#ffffff" /><path
       d="M36.787,64.498c-3.7-1.19-6.729-4.07-8.101-7.705c-0.293-0.774-1.157-1.165-1.933-0.873   c-0.775,0.293-1.166,1.158-0.874,1.934c1.692,4.481,5.427,8.033,9.989,9.5c0.153,0.05,0.308,0.072,0.46,0.072   c0.634,0,1.223-0.405,1.427-1.041C38.009,65.597,37.575,64.751,36.787,64.498z"
       id="path6"
       style="fill:#ffffff" /></g></svg>